<?xml version="1.0" encoding="iso-8859-1"?>
<!-- Uploaded to: SVG Repo, www.svgrepo.com, Generator: SVG Repo Mixer Tools -->
<svg fill="#000000" height="800px" width="800px" version="1.1" id="Capa_1" xmlns="http://www.w3.org/2000/svg" xmlns:xlink="http://www.w3.org/1999/xlink" 
	 viewBox="0 0 55 55" xml:space="preserve">
<g>
	<path d="M37.094,16c4.411,0,8-3.589,8-8s-3.589-8-8-8s-8,3.589-8,8S32.682,16,37.094,16z M37.094,2c3.309,0,6,2.691,6,6
		s-2.691,6-6,6s-6-2.691-6-6S33.785,2,37.094,2z"/>
	<path d="M48.071,24.118c-0.135-1.374-0.876-2.606-2.033-3.38c-1.807-1.206-4.285-0.913-5.894,0.698l-3.622,3.622L35,23.535
		c0.1-0.706,0.122-1.427,0.042-2.156c-0.25-2.263-1.359-4.288-3.125-5.702c-3.657-2.932-9.017-2.34-11.944,1.313L8.769,30.784
		c-2.931,3.658-2.339,9.018,1.318,11.948c0.602,0.482,1.527,0.914,2.75,1.284c1.599,0.482,3.04,1.188,4.285,2.097L18.338,47h-6.612
		c-1.98,0-3.685,1.346-4.052,3.2c-0.236,1.188,0.065,2.403,0.828,3.333C9.267,54.465,10.394,55,11.594,55h19
		c0.088,0,0.173-0.009,0.305-0.025c0.137-0.01,0.271-0.021,0.411-0.046c0.098-0.018,0.19-0.042,0.327-0.081
		c0.146-0.04,0.291-0.081,0.441-0.141c0.065-0.026,0.129-0.057,0.234-0.109c0.162-0.077,0.32-0.16,0.468-0.257
		c0.046-0.029,0.089-0.062,0.139-0.101c0.168-0.119,0.329-0.249,0.484-0.402l0.13-0.139c0.103-0.106,0.204-0.215,0.305-0.354
		l0.122-0.202c0.118-0.187,0.226-0.377,0.302-0.556c0.025-0.057,0.046-0.115,0.061-0.165c0.073-0.194,0.139-0.388,0.18-0.585
		c0.015-0.072,0.024-0.146,0.041-0.289c0.02-0.14,0.037-0.279,0.043-0.419L34.594,51c0-0.089-0.009-0.176-0.027-0.325
		c-0.009-0.125-0.02-0.249-0.041-0.373c-0.022-0.125-0.056-0.247-0.101-0.401c-0.033-0.121-0.068-0.241-0.113-0.355
		c-0.038-0.096-0.082-0.188-0.146-0.316c-0.066-0.134-0.134-0.265-0.218-0.395c-0.045-0.068-0.093-0.133-0.171-0.234
		c-0.098-0.129-0.197-0.255-0.308-0.37c-0.06-0.062-0.124-0.119-0.188-0.175l-0.089-0.08c-0.073-0.071-0.147-0.139-0.25-0.214
		l-8.542-5.99c-0.442-0.31-0.727-0.774-0.801-1.308c-0.075-0.536,0.072-1.064,0.416-1.486l6.021-7.414l3.032,3.032
		c0.852,0.852,2.021,1.328,3.243,1.328c0.07,0,0.141-0.001,0.211-0.004c1.29,0.056,2.553-0.422,3.453-1.323l6.777-6.776
		C47.726,26.847,48.207,25.498,48.071,24.118z M22.462,37.717c-0.687,0.845-0.994,1.947-0.845,3.023
		c0.15,1.074,0.745,2.047,1.634,2.669l8.556,6.009l0.221,0.198c0.056,0.058,0.103,0.122,0.15,0.186l0.092,0.12
		c0.039,0.061,0.069,0.126,0.127,0.243c0.019,0.036,0.037,0.07,0.053,0.11c0.021,0.052,0.034,0.106,0.066,0.221
		c0.014,0.048,0.03,0.096,0.039,0.146l0.001,0.007c0.01,0.056,0.012,0.112,0.019,0.206c0.003,0.043,0.008,0.085,0.015,0.121
		l-0.001,0.063c-0.001,0.078-0.015,0.156-0.027,0.247l-0.016,0.14c-0.021,0.099-0.058,0.195-0.089,0.277l-0.026,0.081
		c-0.043,0.1-0.1,0.194-0.183,0.332c-0.021,0.032-0.041,0.063-0.061,0.097c-0.027,0.032-0.059,0.062-0.088,0.091l-0.104,0.113
		c-0.073,0.072-0.152,0.134-0.307,0.248c-0.075,0.049-0.155,0.088-0.235,0.126l-0.118,0.058c-0.071,0.028-0.146,0.046-0.284,0.084
		l-0.098,0.026c-0.063,0.011-0.128,0.014-0.22,0.02L11.594,53c-0.598,0-1.161-0.269-1.546-0.736
		c-0.387-0.472-0.533-1.066-0.413-1.674C9.814,49.683,10.714,49,11.725,49h9.206c0.5,0,0.94-0.319,1.096-0.794
		c0.156-0.475-0.011-0.993-0.415-1.29l-3.31-2.418c-1.428-1.042-3.072-1.849-4.887-2.397c-1.217-0.367-1.802-0.708-2.078-0.929
		c-2.797-2.241-3.249-6.34-1.012-9.132l11.203-13.794c2.242-2.797,6.342-3.248,9.138-1.008c1.348,1.081,2.195,2.629,2.387,4.361
		c0.068,0.614,0.046,1.222-0.053,1.813l-0.054,0.257c-0.053,0.251-0.119,0.497-0.199,0.736c0,0.001,0,0.001,0,0.001
		c-0.073,0.219-0.16,0.43-0.254,0.636c-0.016,0.034-0.03,0.068-0.046,0.101c-0.084,0.175-0.179,0.345-0.278,0.512
		c-0.027,0.045-0.051,0.091-0.079,0.135c-0.126,0.2-0.262,0.393-0.411,0.579L22.462,37.717z M45.339,26.406l-6.777,6.776
		c-0.518,0.518-1.219,0.788-1.982,0.737l-0.057-0.003l-0.057,0.003c-0.767,0.049-1.466-0.219-1.983-0.737l-3.179-3.179l1.932-2.378
		c0.212-0.265,0.401-0.543,0.578-0.827c0.045-0.073,0.087-0.148,0.13-0.223c0.141-0.243,0.27-0.491,0.385-0.745
		c0.014-0.031,0.033-0.06,0.047-0.091l1.291,1.291c0.458,0.456,1.261,0.453,1.712-0.002l4.18-4.179
		c0.923-0.923,2.369-1.117,3.368-0.449c0.667,0.446,1.077,1.125,1.154,1.913C46.158,25.095,45.888,25.857,45.339,26.406z"/>
</g>
</svg>