<?xml version="1.0" encoding="iso-8859-1"?>
<!-- Uploaded to: SVG Repo, www.svgrepo.com, Generator: SVG Repo Mixer Tools -->
<svg fill="#000000" height="800px" width="800px" version="1.1" id="Layer_1" xmlns="http://www.w3.org/2000/svg" xmlns:xlink="http://www.w3.org/1999/xlink" 
	 viewBox="0 0 512 512" xml:space="preserve">
<g>
	<g>
		<path d="M88.752,133.596l-43.869-29.459c-3.708-2.49-8.729-1.502-11.217,2.204s-1.501,8.729,2.204,11.217l43.871,29.46
			c1.384,0.929,2.949,1.373,4.499,1.373c2.603,0,5.158-1.256,6.718-3.578C93.444,141.107,92.457,136.084,88.752,133.596z"/>
	</g>
</g>
<g>
	<g>
		<path d="M166.692,74.814l-26.667-45.621c-2.253-3.854-7.205-5.152-11.058-2.899c-3.854,2.253-5.153,7.204-2.899,11.058
			l26.667,45.621c1.503,2.572,4.209,4.005,6.986,4.005c1.386,0,2.789-0.357,4.072-1.106
			C167.647,83.62,168.946,78.668,166.692,74.814z"/>
	</g>
</g>
<g>
	<g>
		<path d="M478.333,106.342c-2.49-3.705-7.511-4.694-11.217-2.204l-43.871,29.459c-3.704,2.489-4.692,7.51-2.203,11.216
			c1.561,2.323,4.115,3.578,6.718,3.578c1.55,0,3.116-0.445,4.499-1.373l43.871-29.459
			C479.835,115.071,480.822,110.049,478.333,106.342z"/>
	</g>
</g>
<g>
	<g>
		<path d="M383.031,26.294c-3.853-2.253-8.804-0.955-11.058,2.899l-26.667,45.621c-2.253,3.854-0.955,8.804,2.899,11.058
			c1.283,0.749,2.686,1.106,4.072,1.106c2.779,0,5.483-1.433,6.986-4.005l26.667-45.621
			C388.182,33.498,386.885,28.548,383.031,26.294z"/>
	</g>
</g>
<g>
	<g>
		<path d="M255.999,0c-4.464,0-8.083,3.619-8.083,8.083v50.155c0,4.464,3.619,8.083,8.083,8.083c4.464,0,8.083-3.619,8.083-8.083
			V8.083C264.083,3.619,260.464,0,255.999,0z"/>
	</g>
</g>
<g>
	<g>
		<path d="M473.553,166.291c-11.547,0-21.857,5.375-28.579,13.747c-6.739-8.365-17.048-13.747-28.522-13.747
			c-11.536,0-21.839,5.364-28.561,13.723c-6.722-8.359-17.024-13.723-28.561-13.723c-20.206,0-36.644,16.438-36.644,36.644v74.407
			l-19.546,11.666c-14.445,8.622-23.419,24.429-23.419,41.252l0.001,37.448v136.209c0,4.464,3.619,8.083,8.083,8.083h114.952
			c4.464,0,8.083-3.619,8.083-8.083v-74.689c0-4.464-3.619-8.083-8.083-8.083c-4.464,0-8.083,3.619-8.083,8.083v66.606H295.89
			V367.706l-0.001-37.448c0-11.161,5.954-21.648,15.538-27.369c0,0,23.484-14.015,23.487-14.016l25.772-15.381
			c0.494-0.294,0.998-0.555,1.508-0.8c0.112-0.054,0.224-0.106,0.336-0.157c11.204-5.108,25.094,2.304,26.425,14.719
			c0.801,7.461-3.021,15.097-9.46,18.941l-45.252,27.008c-3.834,2.288-5.086,7.25-2.799,11.084c2.288,3.834,7.25,5.086,11.084,2.799
			l45.252-27.008c1.5-0.896,2.93-1.909,4.282-3.015c0.049-0.04,0.097-0.079,0.146-0.12c6.503-5.35,10.87-12.773,12.413-20.999
			c0.189-1.006,0.349-2.032,0.449-3.05l32.649-17.031c9.474-4.942,15.358-14.649,15.358-25.334v-47.537l0.003-0.131
			c0.04-11.257,9.207-20.404,20.474-20.404c11.292,0,20.478,9.186,20.478,20.478v66.635c0,13.648-6.013,26.381-16.522,35.042
			l-57.342,31.379c-0.412,0.225-0.803,0.486-1.168,0.779c-15.458,12.367-24.324,30.813-24.324,50.61
			c0,4.464,3.619,8.083,8.083,8.083s8.083-3.619,8.083-8.083c0-14.632,6.454-28.281,17.73-37.558l57.344-31.38
			c0.412-0.225,0.803-0.486,1.168-0.779c14.69-11.751,23.115-29.28,23.115-48.092v-66.635
			C510.197,182.73,493.759,166.291,473.553,166.291z M379.808,255.962c-3.065-0.859-6.258-1.305-9.49-1.305
			c-11.823,0-21.643,7.174-31.465,13.037v-64.758c0-11.292,9.186-20.478,20.478-20.478s20.478,9.186,20.478,20.478V255.962z
			 M436.909,202.935v47.595c0,4.64-2.555,8.855-6.669,11.001l-27.676,14.437c0.152-0.08-1.905-3.813-2.09-4.125
			c-1.28-2.162-2.787-4.2-4.5-6.04v-62.868c0-11.292,9.186-20.478,20.478-20.478c11.079,0,20.229,8.972,20.465,20.032
			C436.913,202.639,436.909,202.786,436.909,202.935z"/>
	</g>
</g>
<g>
	<g>
		<path d="M208.858,289.007l-19.545-11.665v-74.407c0-20.206-16.438-36.644-36.644-36.644c-11.536,0-21.839,5.364-28.561,13.723
			c-6.722-8.359-17.024-13.723-28.561-13.723c-11.474,0-21.783,5.382-28.522,13.747c-6.722-8.372-17.032-13.747-28.579-13.747
			c-20.206,0-36.644,16.438-36.644,36.644v66.635c0,18.811,8.425,36.34,23.115,48.092c0.366,0.293,0.758,0.554,1.168,0.779
			l57.344,31.38c11.276,9.276,17.729,22.925,17.729,37.558c0,4.464,3.619,8.083,8.083,8.083s8.083-3.619,8.083-8.083
			c0-19.796-8.866-38.243-24.324-50.61c-0.366-0.293-0.758-0.554-1.168-0.779L34.49,304.612
			c-10.508-8.661-16.522-21.394-16.522-35.042v-66.635c0-11.292,9.186-20.478,20.478-20.478c11.228,0,20.367,9.087,20.468,20.291
			l0.01,47.782c0,10.685,5.885,20.392,15.358,25.334l32.649,17.031c0.022,0.216,0.057,0.427,0.082,0.641
			c1.266,10.832,7.841,20.95,17.208,26.541l45.252,27.008c3.834,2.288,8.796,1.034,11.084-2.799
			c2.288-3.834,1.035-8.796-2.799-11.084c0,0-45.245-27.002-45.252-27.008c-5.326-3.176-8.909-8.964-9.489-15.123
			c-0.674-7.164,3.131-13.98,9.301-17.561c15.211-8.828,31.82,9.051,44.772,15.364l23.482,14.014
			c9.585,5.721,15.538,16.209,15.538,27.37l-0.001,37.448v128.126h-98.785v-73.583c0-4.464-3.619-8.083-8.083-8.083
			s-8.083,3.619-8.083,8.083v81.667c0,4.464,3.619,8.083,8.083,8.083h114.951c4.464,0,8.083-3.619,8.083-8.083V367.706l0.001-37.447
			C232.278,313.436,223.303,297.629,208.858,289.007z M116.023,265.803c0,0.104-0.39,0.427-0.468,0.514
			c-2.544,2.856-4.632,6.126-6.122,9.65l-27.676-14.437c-4.114-2.146-6.669-6.361-6.669-11.001v-47.595
			c0-0.148-0.003-0.293-0.009-0.437c0.232-11.064,9.382-20.041,20.466-20.041c11.292,0,20.478,9.186,20.478,20.478V265.803z
			 M173.145,267.694l-13.544-8.083c-5.38-3.212-11.656-4.953-17.921-4.953c-3.232,0-6.424,0.446-9.49,1.305v-53.027
			c0-11.292,9.186-20.478,20.478-20.478c11.292,0,20.478,9.186,20.478,20.478V267.694z"/>
	</g>
</g>
</svg>